<mxfile host="app.diagrams.net" modified="2024-04-23T01:21:22.951Z" agent="Mozilla/5.0 (Windows NT 10.0; Win64; x64; rv:125.0) Gecko/20100101 Firefox/125.0" etag="A7qvI6v7vyMEg1I2Tglq" version="24.2.8" type="google" pages="2">
  <diagram name="Diagrama de Clases" id="PB0OXzvvsc_h2-W1b2q-">
    <mxGraphModel grid="1" page="1" gridSize="10" guides="1" tooltips="1" connect="1" arrows="1" fold="1" pageScale="1" pageWidth="827" pageHeight="1169" math="0" shadow="0">
      <root>
        <mxCell id="0" />
        <mxCell id="1" parent="0" />
        <mxCell id="_SNa49eQ_UIlEpyPyw9j-1" value="NodoSimple&amp;lt;Comparable T&amp;gt;" style="swimlane;fontStyle=1;align=center;verticalAlign=top;childLayout=stackLayout;horizontal=1;startSize=26;horizontalStack=0;resizeParent=1;resizeParentMax=0;resizeLast=0;collapsible=1;marginBottom=0;whiteSpace=wrap;html=1;" vertex="1" parent="1">
          <mxGeometry x="72" y="241" width="210" height="108" as="geometry" />
        </mxCell>
        <mxCell id="_SNa49eQ_UIlEpyPyw9j-2" value="&lt;div&gt;- siguiente: NodoSimple&lt;/div&gt;- dato: T" style="text;strokeColor=none;fillColor=none;align=left;verticalAlign=top;spacingLeft=4;spacingRight=4;overflow=hidden;rotatable=0;points=[[0,0.5],[1,0.5]];portConstraint=eastwest;whiteSpace=wrap;html=1;" vertex="1" parent="_SNa49eQ_UIlEpyPyw9j-1">
          <mxGeometry y="26" width="210" height="46" as="geometry" />
        </mxCell>
        <mxCell id="_SNa49eQ_UIlEpyPyw9j-3" value="" style="line;strokeWidth=1;fillColor=none;align=left;verticalAlign=middle;spacingTop=-1;spacingLeft=3;spacingRight=3;rotatable=0;labelPosition=right;points=[];portConstraint=eastwest;strokeColor=inherit;" vertex="1" parent="_SNa49eQ_UIlEpyPyw9j-1">
          <mxGeometry y="72" width="210" height="8" as="geometry" />
        </mxCell>
        <mxCell id="_SNa49eQ_UIlEpyPyw9j-4" value="&lt;div&gt;&lt;a href=&quot;data:page/id,SXaf2myMsHBDDWjwCMbr&quot;&gt;+ NodoSimple(T dato)&lt;/a&gt;&lt;/div&gt;" style="text;strokeColor=none;fillColor=none;align=left;verticalAlign=top;spacingLeft=4;spacingRight=4;overflow=hidden;rotatable=0;points=[[0,0.5],[1,0.5]];portConstraint=eastwest;whiteSpace=wrap;html=1;" vertex="1" parent="_SNa49eQ_UIlEpyPyw9j-1">
          <mxGeometry y="80" width="210" height="28" as="geometry" />
        </mxCell>
        <mxCell id="_SNa49eQ_UIlEpyPyw9j-5" value="" style="endArrow=open;html=1;endSize=12;startArrow=diamondThin;startSize=14;startFill=0;edgeStyle=orthogonalEdgeStyle;align=left;verticalAlign=bottom;rounded=0;exitX=1.004;exitY=0.875;exitDx=0;exitDy=0;exitPerimeter=0;entryX=1.009;entryY=0.165;entryDx=0;entryDy=0;entryPerimeter=0;" edge="1" parent="_SNa49eQ_UIlEpyPyw9j-1" source="_SNa49eQ_UIlEpyPyw9j-2" target="_SNa49eQ_UIlEpyPyw9j-1">
          <mxGeometry x="-1" y="3" relative="1" as="geometry">
            <mxPoint x="233.9999999999999" y="62.98400000000004" as="sourcePoint" />
            <mxPoint x="243" y="11" as="targetPoint" />
            <Array as="points">
              <mxPoint x="234" y="66" />
              <mxPoint x="269" y="66" />
              <mxPoint x="269" y="18" />
            </Array>
          </mxGeometry>
        </mxCell>
        <mxCell id="_SNa49eQ_UIlEpyPyw9j-14" value="&lt;p style=&quot;margin:0px;margin-top:4px;text-align:center;&quot;&gt;&lt;i&gt;&amp;lt;&amp;lt;Interface&amp;gt;&amp;gt;&lt;/i&gt;&lt;/p&gt;&lt;p style=&quot;margin:0px;margin-top:4px;text-align:center;&quot;&gt;&lt;b&gt;Comparable&amp;lt;T&amp;gt;&lt;/b&gt;&lt;br&gt;&lt;/p&gt;&lt;hr size=&quot;1&quot; style=&quot;border-style:solid;&quot;&gt;&lt;p style=&quot;margin:0px;margin-left:4px;&quot;&gt;&lt;br&gt;&lt;/p&gt;&lt;hr size=&quot;1&quot; style=&quot;border-style:solid;&quot;&gt;&lt;p style=&quot;margin:0px;margin-left:4px;&quot;&gt;+ compareTo(T obj): int&lt;br&gt;&lt;br&gt;&lt;/p&gt;" style="verticalAlign=top;align=left;overflow=fill;html=1;whiteSpace=wrap;" vertex="1" parent="1">
          <mxGeometry x="66" y="72" width="190" height="108" as="geometry" />
        </mxCell>
        <mxCell id="_SNa49eQ_UIlEpyPyw9j-15" value="Use" style="endArrow=open;endSize=12;dashed=1;html=1;rounded=0;exitX=0.5;exitY=0;exitDx=0;exitDy=0;entryX=0.5;entryY=1;entryDx=0;entryDy=0;" edge="1" parent="1" source="_SNa49eQ_UIlEpyPyw9j-1" target="_SNa49eQ_UIlEpyPyw9j-14">
          <mxGeometry width="160" relative="1" as="geometry">
            <mxPoint x="315" y="243" as="sourcePoint" />
            <mxPoint x="475" y="243" as="targetPoint" />
          </mxGeometry>
        </mxCell>
      </root>
    </mxGraphModel>
  </diagram>
  <diagram id="SXaf2myMsHBDDWjwCMbr" name="DF01">
    <mxGraphModel grid="1" page="1" gridSize="10" guides="1" tooltips="1" connect="1" arrows="1" fold="1" pageScale="1" pageWidth="827" pageHeight="1169" math="0" shadow="0">
      <root>
        <mxCell id="0" />
        <mxCell id="1" parent="0" />
        <mxCell id="IvYAbKozXGo_zB0acjK7-1" value="" style="edgeStyle=orthogonalEdgeStyle;rounded=0;orthogonalLoop=1;jettySize=auto;html=1;" edge="1" parent="1" source="IvYAbKozXGo_zB0acjK7-2" target="IvYAbKozXGo_zB0acjK7-4">
          <mxGeometry relative="1" as="geometry" />
        </mxCell>
        <mxCell id="IvYAbKozXGo_zB0acjK7-2" value="" style="strokeWidth=2;html=1;shape=mxgraph.flowchart.start_1;whiteSpace=wrap;" vertex="1" parent="1">
          <mxGeometry x="77.5" y="72" width="72" height="36" as="geometry" />
        </mxCell>
        <mxCell id="IvYAbKozXGo_zB0acjK7-3" value="" style="edgeStyle=orthogonalEdgeStyle;rounded=0;orthogonalLoop=1;jettySize=auto;html=1;" edge="1" parent="1" source="IvYAbKozXGo_zB0acjK7-4" target="IvYAbKozXGo_zB0acjK7-6">
          <mxGeometry relative="1" as="geometry" />
        </mxCell>
        <mxCell id="IvYAbKozXGo_zB0acjK7-4" value="&lt;div&gt;this.siguiente = null&lt;/div&gt;" style="whiteSpace=wrap;html=1;strokeWidth=2;" vertex="1" parent="1">
          <mxGeometry x="41.5" y="144" width="144" height="36" as="geometry" />
        </mxCell>
        <mxCell id="IvYAbKozXGo_zB0acjK7-5" value="+ NodoSimple(T dato)" style="text;html=1;align=center;verticalAlign=middle;whiteSpace=wrap;rounded=0;" vertex="1" parent="1">
          <mxGeometry x="40" y="42" width="147" height="30" as="geometry" />
        </mxCell>
        <mxCell id="IvYAbKozXGo_zB0acjK7-6" value="this.dato = dato" style="whiteSpace=wrap;html=1;strokeWidth=2;" vertex="1" parent="1">
          <mxGeometry x="41.5" y="216" width="144" height="36" as="geometry" />
        </mxCell>
        <mxCell id="IvYAbKozXGo_zB0acjK7-7" value="" style="strokeWidth=2;html=1;shape=mxgraph.flowchart.start_1;whiteSpace=wrap;" vertex="1" parent="1">
          <mxGeometry x="77.5" y="288" width="72" height="36" as="geometry" />
        </mxCell>
        <mxCell id="IvYAbKozXGo_zB0acjK7-8" style="edgeStyle=orthogonalEdgeStyle;rounded=0;orthogonalLoop=1;jettySize=auto;html=1;entryX=0.5;entryY=0;entryDx=0;entryDy=0;entryPerimeter=0;" edge="1" parent="1" source="IvYAbKozXGo_zB0acjK7-6" target="IvYAbKozXGo_zB0acjK7-7">
          <mxGeometry relative="1" as="geometry" />
        </mxCell>
      </root>
    </mxGraphModel>
  </diagram>
</mxfile>
